<mxfile host="app.diagrams.net" modified="2024-02-29T05:24:52.422Z" agent="Mozilla/5.0 (Macintosh; Intel Mac OS X 10_15_7) AppleWebKit/537.36 (KHTML, like Gecko) Chrome/121.0.0.0 Safari/537.36" etag="oSp4i6vPAPrDfg0Igjej" version="23.1.7" type="github">
  <diagram name="Page-1" id="2YBvvXClWsGukQMizWep">
    <mxGraphModel dx="596" dy="400" grid="1" gridSize="10" guides="1" tooltips="1" connect="1" arrows="1" fold="1" page="1" pageScale="1" pageWidth="850" pageHeight="1100" math="0" shadow="0">
      <root>
        <mxCell id="0" />
        <mxCell id="1" parent="0" />
        <mxCell id="Z3drW9QvDPsj6_xIlieq-7" style="edgeStyle=orthogonalEdgeStyle;rounded=0;orthogonalLoop=1;jettySize=auto;html=1;exitX=1;exitY=0.75;exitDx=0;exitDy=0;" edge="1" parent="1" source="Z3drW9QvDPsj6_xIlieq-2">
          <mxGeometry relative="1" as="geometry">
            <mxPoint x="680" y="340" as="targetPoint" />
          </mxGeometry>
        </mxCell>
        <mxCell id="Z3drW9QvDPsj6_xIlieq-8" style="edgeStyle=orthogonalEdgeStyle;rounded=0;orthogonalLoop=1;jettySize=auto;html=1;exitX=1;exitY=0.25;exitDx=0;exitDy=0;" edge="1" parent="1" source="Z3drW9QvDPsj6_xIlieq-2">
          <mxGeometry relative="1" as="geometry">
            <mxPoint x="680" y="300" as="targetPoint" />
          </mxGeometry>
        </mxCell>
        <mxCell id="Z3drW9QvDPsj6_xIlieq-2" value="Мобильный&lt;br&gt;справочник" style="rounded=0;whiteSpace=wrap;html=1;" vertex="1" parent="1">
          <mxGeometry x="360" y="280" width="120" height="80" as="geometry" />
        </mxCell>
        <mxCell id="Z3drW9QvDPsj6_xIlieq-3" value="" style="endArrow=classic;html=1;rounded=0;entryX=0.663;entryY=1.011;entryDx=0;entryDy=0;entryPerimeter=0;" edge="1" parent="1" target="Z3drW9QvDPsj6_xIlieq-2">
          <mxGeometry width="50" height="50" relative="1" as="geometry">
            <mxPoint x="440" y="480" as="sourcePoint" />
            <mxPoint x="490" y="390" as="targetPoint" />
          </mxGeometry>
        </mxCell>
        <mxCell id="Z3drW9QvDPsj6_xIlieq-4" value="Obsidian" style="text;html=1;align=center;verticalAlign=middle;resizable=0;points=[];autosize=1;strokeColor=none;fillColor=none;" vertex="1" parent="1">
          <mxGeometry x="440" y="405" width="70" height="30" as="geometry" />
        </mxCell>
        <mxCell id="Z3drW9QvDPsj6_xIlieq-5" value="" style="edgeStyle=none;orthogonalLoop=1;jettySize=auto;html=1;rounded=0;entryX=0.312;entryY=1.024;entryDx=0;entryDy=0;entryPerimeter=0;" edge="1" parent="1">
          <mxGeometry width="100" relative="1" as="geometry">
            <mxPoint x="400" y="480" as="sourcePoint" />
            <mxPoint x="399.99999999999994" y="359.99999999999994" as="targetPoint" />
            <Array as="points" />
          </mxGeometry>
        </mxCell>
        <mxCell id="Z3drW9QvDPsj6_xIlieq-6" value="Техническое&lt;br&gt;обеспечение" style="text;html=1;align=center;verticalAlign=middle;resizable=0;points=[];autosize=1;strokeColor=none;fillColor=none;" vertex="1" parent="1">
          <mxGeometry x="300" y="400" width="100" height="40" as="geometry" />
        </mxCell>
        <mxCell id="Z3drW9QvDPsj6_xIlieq-9" value="Рекомендации по &lt;br&gt;устранению неисправностей" style="text;html=1;align=center;verticalAlign=middle;resizable=0;points=[];autosize=1;strokeColor=none;fillColor=none;" vertex="1" parent="1">
          <mxGeometry x="480" y="250" width="190" height="40" as="geometry" />
        </mxCell>
        <mxCell id="Z3drW9QvDPsj6_xIlieq-10" value="Инструкция по эксплуатации" style="text;html=1;align=center;verticalAlign=middle;resizable=0;points=[];autosize=1;strokeColor=none;fillColor=none;" vertex="1" parent="1">
          <mxGeometry x="480" y="338" width="190" height="30" as="geometry" />
        </mxCell>
        <mxCell id="Z3drW9QvDPsj6_xIlieq-11" value="" style="edgeStyle=none;orthogonalLoop=1;jettySize=auto;html=1;rounded=0;entryX=0.671;entryY=-0.019;entryDx=0;entryDy=0;entryPerimeter=0;" edge="1" parent="1">
          <mxGeometry width="100" relative="1" as="geometry">
            <mxPoint x="419.57" y="160" as="sourcePoint" />
            <mxPoint x="420.09" y="280" as="targetPoint" />
            <Array as="points" />
          </mxGeometry>
        </mxCell>
        <mxCell id="Z3drW9QvDPsj6_xIlieq-13" value="Нормативная &lt;br&gt;документация" style="text;html=1;align=center;verticalAlign=middle;resizable=0;points=[];autosize=1;strokeColor=none;fillColor=none;" vertex="1" parent="1">
          <mxGeometry x="425" y="200" width="100" height="40" as="geometry" />
        </mxCell>
        <mxCell id="Z3drW9QvDPsj6_xIlieq-15" value="" style="edgeStyle=none;orthogonalLoop=1;jettySize=auto;html=1;rounded=0;entryX=0;entryY=0.25;entryDx=0;entryDy=0;" edge="1" parent="1">
          <mxGeometry width="100" relative="1" as="geometry">
            <mxPoint x="200" y="319.74" as="sourcePoint" />
            <mxPoint x="360" y="319.74" as="targetPoint" />
            <Array as="points">
              <mxPoint x="240" y="319.74" />
            </Array>
          </mxGeometry>
        </mxCell>
        <mxCell id="Z3drW9QvDPsj6_xIlieq-16" value="Информация о&lt;br&gt;сельскохозяйственной&lt;div&gt;технике&lt;/div&gt;" style="text;html=1;align=center;verticalAlign=middle;resizable=0;points=[];autosize=1;strokeColor=none;fillColor=none;" vertex="1" parent="1">
          <mxGeometry x="200" y="260" width="150" height="60" as="geometry" />
        </mxCell>
      </root>
    </mxGraphModel>
  </diagram>
</mxfile>
